<svg xmlns="http://www.w3.org/2000/svg" xmlns:xlink="http://www.w3.org/1999/xlink" viewBox="0 0 191.84 180.3"><defs><linearGradient id="a" x1="132.37" y1="64.99" x2="87.58" y2="120.79" gradientUnits="userSpaceOnUse"><stop offset="0" stop-opacity="0"/><stop offset="1"/></linearGradient><linearGradient id="c" x1="120.13" y1="121.02" x2="88.07" y2="106.62" xlink:href="#a"/><linearGradient id="d" x1="38.55" y1="51.56" x2="99.38" y2="113.65" xlink:href="#a"/><linearGradient id="f" x1="61.06" y1="145.28" x2="130.58" y2="75.77" gradientUnits="userSpaceOnUse"><stop offset="0" stop-color="#3d8aff"/><stop offset=".14" stop-color="#468aff"/><stop offset=".38" stop-color="#5f8bff"/><stop offset=".68" stop-color="#878cff"/><stop offset="1" stop-color="#b98eff"/></linearGradient><linearGradient id="h" x1="50.4" y1="110.17" x2="141.52" y2="110.17" gradientUnits="userSpaceOnUse"><stop offset="0" stop-color="#3d8aff"/><stop offset="1" stop-color="#b98eff"/></linearGradient><linearGradient id="j" x1="46.37" y1="159.76" x2="145.55" y2="60.57" gradientUnits="userSpaceOnUse"><stop offset="0" stop-color="#3d8aff"/><stop offset=".16" stop-color="#428aff"/><stop offset=".34" stop-color="#518bff"/><stop offset=".55" stop-color="#698bff"/><stop offset=".76" stop-color="#8a8cff"/><stop offset=".98" stop-color="#b58eff"/><stop offset="1" stop-color="#b98eff"/></linearGradient><linearGradient id="k" y1="35.81" x2="191.84" y2="35.81" gradientUnits="userSpaceOnUse"><stop offset="0" stop-color="#3d8aff"/><stop offset=".06" stop-color="#528bff"/><stop offset=".16" stop-color="#728cff"/><stop offset=".27" stop-color="#8c8dff"/><stop offset=".4" stop-color="#a08dff"/><stop offset=".54" stop-color="#ae8eff"/><stop offset=".71" stop-color="#b78eff"/><stop offset="1" stop-color="#b98eff"/></linearGradient><mask id="e" x="30.92" y="56.11" width="129.8" height="108.83" maskUnits="userSpaceOnUse"><path d="M74.33 65.4c13.28 0 27.9 4.38 41.16 12.34 14.48 8.68 25.73 20.54 31.69 33.38 5.4 11.62 5.67 22.52.78 30.68-5.28 8.8-16.45 13.85-30.65 13.85-13.28 0-27.9-4.38-41.16-12.34-14.48-8.68-25.73-20.53-31.69-33.37-5.4-11.63-5.68-22.53-.78-30.69C49 70.45 60.13 65.4 74.33 65.4m0-9.29c-16.93 0-31.33 6.21-38.61 18.36-13.51 22.53 2.46 56.9 35.65 76.81 15.27 9.16 31.52 13.66 45.94 13.66 16.92 0 31.32-6.2 38.61-18.36 13.5-22.51-2.46-56.89-35.65-76.81C105 60.61 88.74 56.11 74.33 56.11z" filter="url(#b)" fill="url(#a)"/></mask><mask id="g" x="50.4" y="47.11" width="91.12" height="126.1" maskUnits="userSpaceOnUse"><path d="M122 56.39a8.47 8.47 0 014.37 1c4.37 2.52 6.49 10.34 5.67 20.91-1 13.1-6.51 29.12-15.07 44-15.62 27-35.92 41.63-47.1 41.63a8.58 8.58 0 01-4.38-1c-4.34-2.56-6.49-10.38-5.64-20.93 1-13.1 6.51-29.12 15.08-44C90.54 71 110.85 56.39 122 56.39m0-9.28c-16.38 0-39 18.33-55.12 46.27-19.38 33.56-22.07 68.28-6 77.55a17.8 17.8 0 009 2.29c16.38 0 39-18.33 55.13-46.27 19.37-33.56 22.06-68.28 6-77.55a17.75 17.75 0 00-9-2.29z" fill="url(#c)" filter="url(#b)"/></mask><mask id="i" x="25.83" y="40.03" width="140.27" height="140.27" maskUnits="userSpaceOnUse"><path d="M96 49.31a60.86 60.86 0 11-60.9 60.86A60.93 60.93 0 0196 49.31M96 40a70.14 70.14 0 1070.14 70.14A70.13 70.13 0 0096 40z" fill="url(#d)" filter="url(#b)"/></mask><filter id="b" filterUnits="userSpaceOnUse" color-interpolation-filters="sRGB"><feColorMatrix values="-1 0 0 0 1 0 -1 0 0 1 0 0 -1 0 1 0 0 0 1 0"/></filter></defs><g data-name="Layer 2"><g data-name="Layer 1"><g mask="url(#e)"><path d="M74.33 65.4c13.28 0 27.9 4.38 41.16 12.34 14.48 8.68 25.73 20.54 31.69 33.38 5.4 11.62 5.67 22.52.78 30.68-5.28 8.8-16.45 13.85-30.65 13.85-13.28 0-27.9-4.38-41.16-12.34-14.48-8.68-25.73-20.53-31.69-33.37-5.4-11.63-5.68-22.53-.78-30.69C49 70.45 60.13 65.4 74.33 65.4m0-9.29c-16.93 0-31.33 6.21-38.61 18.36-13.51 22.53 2.46 56.9 35.65 76.81 15.27 9.16 31.52 13.66 45.94 13.66 16.92 0 31.32-6.2 38.61-18.36 13.5-22.51-2.46-56.89-35.65-76.81C105 60.61 88.74 56.11 74.33 56.11z" fill="url(#f)"/></g><g mask="url(#g)"><path d="M122 56.39a8.47 8.47 0 014.37 1c4.37 2.52 6.49 10.34 5.67 20.91-1 13.1-6.51 29.12-15.07 44-15.62 27-35.92 41.63-47.1 41.63a8.58 8.58 0 01-4.38-1c-4.34-2.56-6.49-10.38-5.64-20.93 1-13.1 6.51-29.12 15.08-44C90.54 71 110.85 56.39 122 56.39m0-9.28c-16.38 0-39 18.33-55.12 46.27-19.38 33.56-22.07 68.28-6 77.55a17.8 17.8 0 009 2.29c16.38 0 39-18.33 55.13-46.27 19.37-33.56 22.06-68.28 6-77.55a17.75 17.75 0 00-9-2.29z" fill="url(#h)"/></g><g mask="url(#i)"><path d="M96 49.31a60.86 60.86 0 11-60.9 60.86A60.93 60.93 0 0196 49.31M96 40a70.14 70.14 0 1070.14 70.14A70.13 70.13 0 0096 40z" fill="url(#j)"/></g><path d="M96 28.37a4.49 4.49 0 01-4.5-4.5V4.5a4.5 4.5 0 019 0v19.37a4.5 4.5 0 01-4.5 4.5zm46.26 9.17l9.81-16.71a4.5 4.5 0 10-7.76-4.55L134.49 33a4.5 4.5 0 107.76 4.55zm-86.53 1.61a4.5 4.5 0 001.6-6.15l-9.8-16.71a4.5 4.5 0 10-7.76 4.55l9.8 16.71a4.49 4.49 0 006.16 1.61zM172.84 71l16.75-9.71a4.5 4.5 0 10-4.51-7.79l-16.76 9.71a4.5 4.5 0 104.52 7.79zM4.51 52.9a4.5 4.5 0 00-2.26 8.4L19 71a4.5 4.5 0 104.52-7.79l-16.76-9.7a4.51 4.51 0 00-2.25-.61z" fill="url(#k)"/></g></g></svg>